<svg xmlns="http://www.w3.org/2000/svg" viewBox="0 0 512 512">
  <defs>
    <linearGradient id="bgGrad" x1="0%" y1="0%" x2="100%" y2="100%">
      <stop offset="0%" style="stop-color:#6366f1"/>
      <stop offset="100%" style="stop-color:#8b5cf6"/>
    </linearGradient>
    <linearGradient id="folderGrad" x1="0%" y1="0%" x2="0%" y2="100%">
      <stop offset="0%" style="stop-color:#fbbf24"/>
      <stop offset="100%" style="stop-color:#f59e0b"/>
    </linearGradient>
  </defs>
  <!-- Background -->
  <rect width="512" height="512" rx="100" fill="url(#bgGrad)"/>
  <!-- Folder Back -->
  <path d="M100 180 L100 380 Q100 400 120 400 L392 400 Q412 400 412 380 L412 200 Q412 180 392 180 L260 180 L230 150 Q220 140 200 140 L120 140 Q100 140 100 160 Z" fill="#fcd34d"/>
  <!-- Folder Front -->
  <path d="M80 220 L80 400 Q80 420 100 420 L412 420 Q432 420 432 400 L432 220 Q432 200 412 200 L100 200 Q80 200 80 220 Z" fill="url(#folderGrad)"/>
  <!-- Organization Lines -->
  <rect x="120" y="260" width="180" height="20" rx="10" fill="white" opacity="0.9"/>
  <rect x="120" y="300" width="140" height="20" rx="10" fill="white" opacity="0.7"/>
  <rect x="120" y="340" width="200" height="20" rx="10" fill="white" opacity="0.5"/>
  <!-- Sparkle/Magic indicator -->
  <circle cx="380" cy="140" r="40" fill="white" opacity="0.9"/>
  <path d="M380 110 L380 170 M350 140 L410 140" stroke="#6366f1" stroke-width="8" stroke-linecap="round"/>
</svg>
